<mxfile host="app.diagrams.net" agent="Mozilla/5.0 (Windows NT 10.0; Win64; x64) AppleWebKit/537.36 (KHTML, like Gecko) Chrome/135.0.0.0 Safari/537.36" version="26.2.9">
  <diagram name="PÃ¡gina-1" id="tg1bXKzL8WJqyr-fZuM9">
    <mxGraphModel dx="2255" dy="1946" grid="1" gridSize="10" guides="1" tooltips="1" connect="1" arrows="1" fold="1" page="1" pageScale="1" pageWidth="827" pageHeight="1169" math="0" shadow="0">
      <root>
        <mxCell id="0" />
        <mxCell id="1" parent="0" />
        <mxCell id="wySccEfFA6jnKbdL9FhE-13" style="edgeStyle=none;shape=connector;rounded=0;orthogonalLoop=1;jettySize=auto;html=1;exitX=1;exitY=0;exitDx=0;exitDy=0;entryX=0;entryY=1;entryDx=0;entryDy=0;strokeColor=default;align=center;verticalAlign=middle;fontFamily=Helvetica;fontSize=11;fontColor=default;labelBackgroundColor=default;startFill=0;endArrow=none;" edge="1" parent="1" source="wySccEfFA6jnKbdL9FhE-22" target="wySccEfFA6jnKbdL9FhE-12">
          <mxGeometry relative="1" as="geometry" />
        </mxCell>
        <mxCell id="wySccEfFA6jnKbdL9FhE-1" value="factura" style="rounded=0;whiteSpace=wrap;html=1;" vertex="1" parent="1">
          <mxGeometry x="450" y="160" width="120" height="60" as="geometry" />
        </mxCell>
        <mxCell id="wySccEfFA6jnKbdL9FhE-2" value="cliente" style="rounded=0;whiteSpace=wrap;html=1;" vertex="1" parent="1">
          <mxGeometry x="90" y="420" width="120" height="60" as="geometry" />
        </mxCell>
        <mxCell id="wySccEfFA6jnKbdL9FhE-5" style="rounded=0;orthogonalLoop=1;jettySize=auto;html=1;exitX=1;exitY=0.5;exitDx=0;exitDy=0;entryX=0;entryY=0.5;entryDx=0;entryDy=0;endArrow=none;startFill=0;" edge="1" parent="1" source="wySccEfFA6jnKbdL9FhE-17" target="wySccEfFA6jnKbdL9FhE-1">
          <mxGeometry relative="1" as="geometry" />
        </mxCell>
        <mxCell id="wySccEfFA6jnKbdL9FhE-6" style="edgeStyle=none;shape=connector;rounded=0;orthogonalLoop=1;jettySize=auto;html=1;exitX=0.5;exitY=1;exitDx=0;exitDy=0;strokeColor=default;align=center;verticalAlign=middle;fontFamily=Helvetica;fontSize=11;fontColor=default;labelBackgroundColor=default;startFill=0;endArrow=none;" edge="1" parent="1" source="wySccEfFA6jnKbdL9FhE-25" target="wySccEfFA6jnKbdL9FhE-2">
          <mxGeometry relative="1" as="geometry" />
        </mxCell>
        <mxCell id="wySccEfFA6jnKbdL9FhE-3" value="usuario" style="rounded=0;whiteSpace=wrap;html=1;" vertex="1" parent="1">
          <mxGeometry x="130" y="150" width="120" height="60" as="geometry" />
        </mxCell>
        <mxCell id="wySccEfFA6jnKbdL9FhE-36" style="edgeStyle=none;shape=connector;rounded=0;orthogonalLoop=1;jettySize=auto;html=1;exitX=1;exitY=1;exitDx=0;exitDy=0;entryX=0;entryY=0;entryDx=0;entryDy=0;strokeColor=default;align=center;verticalAlign=middle;fontFamily=Helvetica;fontSize=11;fontColor=default;labelBackgroundColor=default;startFill=0;endArrow=none;" edge="1" parent="1" source="wySccEfFA6jnKbdL9FhE-4" target="wySccEfFA6jnKbdL9FhE-15">
          <mxGeometry relative="1" as="geometry" />
        </mxCell>
        <mxCell id="wySccEfFA6jnKbdL9FhE-38" style="edgeStyle=none;shape=connector;rounded=0;orthogonalLoop=1;jettySize=auto;html=1;exitX=0.5;exitY=1;exitDx=0;exitDy=0;entryX=1;entryY=0;entryDx=0;entryDy=0;strokeColor=default;align=center;verticalAlign=middle;fontFamily=Helvetica;fontSize=11;fontColor=default;labelBackgroundColor=default;startFill=0;endArrow=none;" edge="1" parent="1" source="wySccEfFA6jnKbdL9FhE-4" target="wySccEfFA6jnKbdL9FhE-27">
          <mxGeometry relative="1" as="geometry" />
        </mxCell>
        <mxCell id="wySccEfFA6jnKbdL9FhE-4" value="proyecto" style="rounded=0;whiteSpace=wrap;html=1;" vertex="1" parent="1">
          <mxGeometry x="210" y="-70" width="120" height="60" as="geometry" />
        </mxCell>
        <mxCell id="wySccEfFA6jnKbdL9FhE-12" value="lineaFactura" style="rounded=0;whiteSpace=wrap;html=1;fontFamily=Helvetica;fontSize=11;fontColor=default;labelBackgroundColor=default;" vertex="1" parent="1">
          <mxGeometry x="720" y="-110" width="120" height="60" as="geometry" />
        </mxCell>
        <mxCell id="wySccEfFA6jnKbdL9FhE-23" style="edgeStyle=none;shape=connector;rounded=0;orthogonalLoop=1;jettySize=auto;html=1;exitX=0.5;exitY=0;exitDx=0;exitDy=0;entryX=0;entryY=0.5;entryDx=0;entryDy=0;strokeColor=default;align=center;verticalAlign=middle;fontFamily=Helvetica;fontSize=11;fontColor=default;labelBackgroundColor=default;startFill=0;endArrow=none;" edge="1" parent="1" source="wySccEfFA6jnKbdL9FhE-20" target="wySccEfFA6jnKbdL9FhE-4">
          <mxGeometry relative="1" as="geometry" />
        </mxCell>
        <mxCell id="wySccEfFA6jnKbdL9FhE-24" style="edgeStyle=none;shape=connector;rounded=0;orthogonalLoop=1;jettySize=auto;html=1;exitX=0.5;exitY=1;exitDx=0;exitDy=0;entryX=0;entryY=0.5;entryDx=0;entryDy=0;strokeColor=default;align=center;verticalAlign=middle;fontFamily=Helvetica;fontSize=11;fontColor=default;labelBackgroundColor=default;startFill=0;endArrow=none;" edge="1" parent="1" source="wySccEfFA6jnKbdL9FhE-20" target="wySccEfFA6jnKbdL9FhE-2">
          <mxGeometry relative="1" as="geometry" />
        </mxCell>
        <mxCell id="wySccEfFA6jnKbdL9FhE-20" value="pide" style="rhombus;whiteSpace=wrap;html=1;fontFamily=Helvetica;fontSize=11;fontColor=default;labelBackgroundColor=default;" vertex="1" parent="1">
          <mxGeometry x="-130" y="140" width="80" height="60" as="geometry" />
        </mxCell>
        <mxCell id="wySccEfFA6jnKbdL9FhE-26" value="" style="edgeStyle=none;shape=connector;rounded=0;orthogonalLoop=1;jettySize=auto;html=1;exitX=0.5;exitY=1;exitDx=0;exitDy=0;strokeColor=default;align=center;verticalAlign=middle;fontFamily=Helvetica;fontSize=11;fontColor=default;labelBackgroundColor=default;startFill=0;endArrow=none;" edge="1" parent="1" source="wySccEfFA6jnKbdL9FhE-3" target="wySccEfFA6jnKbdL9FhE-25">
          <mxGeometry relative="1" as="geometry">
            <mxPoint x="220" y="210" as="sourcePoint" />
            <mxPoint x="159" y="420" as="targetPoint" />
          </mxGeometry>
        </mxCell>
        <mxCell id="wySccEfFA6jnKbdL9FhE-25" value="gestiona" style="rhombus;whiteSpace=wrap;html=1;fontFamily=Helvetica;fontSize=11;fontColor=default;labelBackgroundColor=default;" vertex="1" parent="1">
          <mxGeometry x="150" y="290" width="80" height="60" as="geometry" />
        </mxCell>
        <mxCell id="wySccEfFA6jnKbdL9FhE-39" style="edgeStyle=none;shape=connector;rounded=0;orthogonalLoop=1;jettySize=auto;html=1;exitX=0;exitY=1;exitDx=0;exitDy=0;entryX=0.5;entryY=0;entryDx=0;entryDy=0;strokeColor=default;align=center;verticalAlign=middle;fontFamily=Helvetica;fontSize=11;fontColor=default;labelBackgroundColor=default;startFill=0;endArrow=none;" edge="1" parent="1" source="wySccEfFA6jnKbdL9FhE-27" target="wySccEfFA6jnKbdL9FhE-3">
          <mxGeometry relative="1" as="geometry" />
        </mxCell>
        <mxCell id="wySccEfFA6jnKbdL9FhE-27" value="realiza" style="rhombus;whiteSpace=wrap;html=1;fontFamily=Helvetica;fontSize=11;fontColor=default;labelBackgroundColor=default;" vertex="1" parent="1">
          <mxGeometry x="180" y="40" width="80" height="60" as="geometry" />
        </mxCell>
        <mxCell id="wySccEfFA6jnKbdL9FhE-29" value="" style="rounded=0;orthogonalLoop=1;jettySize=auto;html=1;exitX=1;exitY=0.5;exitDx=0;exitDy=0;entryX=0;entryY=0.5;entryDx=0;entryDy=0;endArrow=none;startFill=0;" edge="1" parent="1" source="wySccEfFA6jnKbdL9FhE-3" target="wySccEfFA6jnKbdL9FhE-17">
          <mxGeometry relative="1" as="geometry">
            <mxPoint x="250" y="180" as="sourcePoint" />
            <mxPoint x="450" y="190" as="targetPoint" />
          </mxGeometry>
        </mxCell>
        <mxCell id="wySccEfFA6jnKbdL9FhE-17" value="emite" style="rhombus;whiteSpace=wrap;html=1;fontFamily=Helvetica;fontSize=11;fontColor=default;labelBackgroundColor=default;" vertex="1" parent="1">
          <mxGeometry x="310" y="160" width="80" height="60" as="geometry" />
        </mxCell>
        <mxCell id="wySccEfFA6jnKbdL9FhE-37" style="edgeStyle=none;shape=connector;rounded=0;orthogonalLoop=1;jettySize=auto;html=1;exitX=1;exitY=1;exitDx=0;exitDy=0;entryX=0.5;entryY=0;entryDx=0;entryDy=0;strokeColor=default;align=center;verticalAlign=middle;fontFamily=Helvetica;fontSize=11;fontColor=default;labelBackgroundColor=default;startFill=0;endArrow=none;" edge="1" parent="1" source="wySccEfFA6jnKbdL9FhE-15" target="wySccEfFA6jnKbdL9FhE-1">
          <mxGeometry relative="1" as="geometry" />
        </mxCell>
        <mxCell id="wySccEfFA6jnKbdL9FhE-15" value="crea" style="rhombus;whiteSpace=wrap;html=1;fontFamily=Helvetica;fontSize=11;fontColor=default;labelBackgroundColor=default;" vertex="1" parent="1">
          <mxGeometry x="374" y="30" width="80" height="60" as="geometry" />
        </mxCell>
        <mxCell id="wySccEfFA6jnKbdL9FhE-34" style="edgeStyle=none;shape=connector;rounded=0;orthogonalLoop=1;jettySize=auto;html=1;exitX=0;exitY=1;exitDx=0;exitDy=0;entryX=1;entryY=0.5;entryDx=0;entryDy=0;strokeColor=default;align=center;verticalAlign=middle;fontFamily=Helvetica;fontSize=11;fontColor=default;labelBackgroundColor=default;startFill=0;endArrow=none;" edge="1" parent="1" source="wySccEfFA6jnKbdL9FhE-18" target="wySccEfFA6jnKbdL9FhE-2">
          <mxGeometry relative="1" as="geometry" />
        </mxCell>
        <mxCell id="wySccEfFA6jnKbdL9FhE-35" style="edgeStyle=none;shape=connector;rounded=0;orthogonalLoop=1;jettySize=auto;html=1;exitX=1;exitY=0;exitDx=0;exitDy=0;entryX=0.5;entryY=1;entryDx=0;entryDy=0;strokeColor=default;align=center;verticalAlign=middle;fontFamily=Helvetica;fontSize=11;fontColor=default;labelBackgroundColor=default;startFill=0;endArrow=none;" edge="1" parent="1" source="wySccEfFA6jnKbdL9FhE-18" target="wySccEfFA6jnKbdL9FhE-1">
          <mxGeometry relative="1" as="geometry" />
        </mxCell>
        <mxCell id="wySccEfFA6jnKbdL9FhE-18" value="paga" style="rhombus;whiteSpace=wrap;html=1;fontFamily=Helvetica;fontSize=11;fontColor=default;labelBackgroundColor=default;" vertex="1" parent="1">
          <mxGeometry x="330" y="290" width="80" height="60" as="geometry" />
        </mxCell>
        <mxCell id="wySccEfFA6jnKbdL9FhE-40" value="" style="edgeStyle=none;shape=connector;rounded=0;orthogonalLoop=1;jettySize=auto;html=1;exitX=1;exitY=0;exitDx=0;exitDy=0;entryX=0;entryY=1;entryDx=0;entryDy=0;strokeColor=default;align=center;verticalAlign=middle;fontFamily=Helvetica;fontSize=11;fontColor=default;labelBackgroundColor=default;startFill=0;endArrow=none;" edge="1" parent="1" source="wySccEfFA6jnKbdL9FhE-1" target="wySccEfFA6jnKbdL9FhE-22">
          <mxGeometry relative="1" as="geometry">
            <mxPoint x="570" y="160" as="sourcePoint" />
            <mxPoint x="720" y="-50" as="targetPoint" />
          </mxGeometry>
        </mxCell>
        <mxCell id="wySccEfFA6jnKbdL9FhE-22" value="contiene" style="rhombus;whiteSpace=wrap;html=1;fontFamily=Helvetica;fontSize=11;fontColor=default;labelBackgroundColor=default;" vertex="1" parent="1">
          <mxGeometry x="600" y="20" width="80" height="60" as="geometry" />
        </mxCell>
      </root>
    </mxGraphModel>
  </diagram>
</mxfile>
